<svg id="Capa_1" data-name="Capa 1" xmlns="http://www.w3.org/2000/svg" xmlns:xlink="http://www.w3.org/1999/xlink" viewBox="0 0 263.81 263.85"><defs><style>.cls-1{fill:url(#Degradado_sin_nombre_81);}.cls-2{fill-opacity:0.55;opacity:0.17;}.cls-3{fill:#fff;}.cls-4{fill:url(#Degradado_sin_nombre_6);}</style><linearGradient id="Degradado_sin_nombre_81" x1="-195.6" y1="326.71" x2="535.91" y2="-108.39" gradientUnits="userSpaceOnUse"><stop offset="0" stop-color="#108dcd"/><stop offset="0.22" stop-color="#1f9bd6"/><stop offset="0.72" stop-color="#3eb6e8"/><stop offset="1" stop-color="#4ac0ef"/></linearGradient><linearGradient id="Degradado_sin_nombre_6" x1="109.66" y1="171.4" x2="275.66" y2="56.81" gradientUnits="userSpaceOnUse"><stop offset="0" stop-color="#fff" stop-opacity="0"/><stop offset="0.36" stop-color="#dadad9" stop-opacity="0.17"/><stop offset="0.78" stop-color="#6d6d6b" stop-opacity="0.65"/><stop offset="1" stop-color="#1d1d1b"/></linearGradient></defs><title>logo vector</title><circle class="cls-1" cx="131.91" cy="131.91" r="131.91"/><path class="cls-2" d="M117.88,263.08s51.16,8.13,96.76-28.29c40.84-32.63,46.62-77.41,46.62-77.41l-52.6-52.3L187.29,223.23l-36.61,15.52-4.18.93-51.05.06Z"/><polygon class="cls-3" points="161.8 29.99 150.69 238.75 187.29 223.23 208.66 105.07 161.8 29.99"/><path class="cls-3" d="M66.47,52.36l29,187.39,51.05-.06,9.81-213.92ZM82.29,91.14l-0.47-2.7-3.3-19.53,66.67-19.55-1.59,29.4-59.52,12Zm6.56,40.13,10.48-2,44.36-8.47-0.07,5.93-42.91,5.78L89.29,134Zm3.76,25.9-0.4-2.66,16.71-2.78,33.45-5.57L142.24,152l-31.78,3.3Zm6.08,65-1.08-8,17-1.41,0.53,8.37Zm18.12-21.64c-3.49-.28-6-4.73-5.57-9.93s3.6-9.19,7.09-8.91,6,4.73,5.57,9.93S120.32,200.8,116.82,200.52Zm6.67,20-0.33-8.12,11.49-.46,5.92-.23L140,220.2l-1.79,0Z"/><polygon class="cls-3" points="141.37 54.59 140.69 75.77 84.94 87.49 82.34 71.47 141.37 54.59"/><polygon class="cls-4" points="161.8 29.99 208.66 105.07 187.29 223.23 161.8 29.99"/></svg>